/* XPM */
static char * novacoin32_xpm[] = {
"32 32 536 2",
"  	c None",
". 	c #2B3128",
"+ 	c #464E41",
"@ 	c #4F594A",
"# 	c #4E5849",
"$ 	c #4B5547",
"% 	c #455141",
"& 	c #384334",
"* 	c #5F675A",
"= 	c #475740",
"- 	c #43593A",
"; 	c #415D35",
"> 	c #38542C",
", 	c #37542B",
"' 	c #2F4D22",
") 	c #304D24",
"! 	c #345028",
"~ 	c #345228",
"{ 	c #324F27",
"] 	c #324929",
"^ 	c #2D4125",
"/ 	c #2C3925",
"( 	c #4B5148",
"_ 	c #55674C",
": 	c #334E28",
"< 	c #324D26",
"[ 	c #425B38",
"} 	c #3E5236",
"| 	c #263D1D",
"1 	c #1A3310",
"2 	c #1B3310",
"3 	c #1C3311",
"4 	c #253D1C",
"5 	c #2E4424",
"6 	c #2F4A25",
"7 	c #254319",
"8 	c #27431B",
"9 	c #294020",
"0 	c #515B4C",
"a 	c #48613E",
"b 	c #2C4821",
"c 	c #405636",
"d 	c #3B4F31",
"e 	c #142E08",
"f 	c #19380C",
"g 	c #1A3B0D",
"h 	c #1E3E10",
"i 	c #1E3D10",
"j 	c #203F13",
"k 	c #1D3C0F",
"l 	c #1E3D11",
"m 	c #1D3C10",
"n 	c #1B3510",
"o 	c #243C1B",
"p 	c #26411A",
"q 	c #1E3C10",
"r 	c #26421B",
"s 	c #15250E",
"t 	c #4E5E48",
"u 	c #355128",
"v 	c #314A26",
"w 	c #364C2C",
"x 	c #17330C",
"y 	c #173709",
"z 	c #1C3C0E",
"A 	c #1F3D13",
"B 	c #18390B",
"C 	c #1A390D",
"D 	c #1C3C11",
"E 	c #1A370E",
"F 	c #17370A",
"G 	c #1C3B0F",
"H 	c #1B3B0E",
"I 	c #19390C",
"J 	c #1A360F",
"K 	c #203A14",
"L 	c #1D3B10",
"M 	c #203E13",
"N 	c #142A0B",
"O 	c #4D5D46",
"P 	c #334F28",
"Q 	c #3E5434",
"R 	c #263E1C",
"S 	c #1A390E",
"T 	c #1C3B0E",
"U 	c #203E14",
"V 	c #324C22",
"W 	c #2E4A21",
"X 	c #445D31",
"Y 	c #344F21",
"Z 	c #2F4C21",
"` 	c #254313",
" .	c #1B3A0E",
"..	c #1B390F",
"+.	c #1B350F",
"@.	c #18350C",
"#.	c #1E3D12",
"$.	c #112508",
"%.	c #4A5645",
"&.	c #3D5434",
"*.	c #1D3712",
"=.	c #1B3A0D",
"-.	c #254217",
";.	c #1B3A0F",
">.	c #234116",
",.	c #1A380D",
"'.	c #5F7250",
").	c #C7CAC3",
"!.	c #778649",
"~.	c #788A2D",
"{.	c #708527",
"].	c #A4AC93",
"^.	c #757D6C",
"/.	c #1E3A11",
"(.	c #223F15",
"_.	c #234015",
":.	c #1E3C11",
"<.	c #203F14",
"[.	c #17320C",
"}.	c #16320A",
"|.	c #0D1B06",
"1.	c #424A3E",
"2.	c #3D5832",
"3.	c #334D27",
"4.	c #273F1C",
"5.	c #1C3C0F",
"6.	c #1E3C12",
"7.	c #465639",
"8.	c #B4B4AE",
"9.	c #687722",
"0.	c #6C8110",
"a.	c #6C800D",
"b.	c #8A8F6E",
"c.	c #5E5F5C",
"d.	c #203D14",
"e.	c #1D3C11",
"f.	c #17340B",
"g.	c #224014",
"h.	c #304827",
"i.	c #17360A",
"j.	c #2E4919",
"k.	c #7E8C35",
"l.	c #64780A",
"m.	c #687C0C",
"n.	c #6A7E12",
"o.	c #677815",
"p.	c #2F3C0D",
"q.	c #1A390C",
"r.	c #1F3D12",
"s.	c #18370B",
"t.	c #153109",
"u.	c #0F2506",
"v.	c #44513F",
"w.	c #29471D",
"x.	c #344E29",
"y.	c #1D3812",
"z.	c #213E14",
"A.	c #1F3E12",
"B.	c #1F3D11",
"C.	c #264319",
"D.	c #213E15",
"E.	c #52692C",
"F.	c #728612",
"G.	c #6E8212",
"H.	c #6C810E",
"I.	c #697E0C",
"J.	c #728610",
"K.	c #3D4B05",
"L.	c #223C15",
"M.	c #244218",
"N.	c #17360B",
"O.	c #213F13",
"P.	c #193A0C",
"Q.	c #19350D",
"R.	c #1B370E",
"S.	c #36492E",
"T.	c #27441B",
"U.	c #324829",
"V.	c #1C3A0E",
"W.	c #19380E",
"X.	c #4A6318",
"Y.	c #738716",
"Z.	c #677B0D",
"`.	c #6B7F0E",
" +	c #6A7F0C",
".+	c #71860F",
"++	c #3F4B07",
"@+	c #1A340E",
"#+	c #19380B",
"$+	c #1B390E",
"%+	c #1D3D10",
"&+	c #152F09",
"*+	c #19380D",
"=+	c #0D1F05",
"-+	c #354E2B",
";+	c #2F4923",
">+	c #18310C",
",+	c #1E3E11",
"'+	c #203E12",
")+	c #1F3E11",
"!+	c #19390D",
"~+	c #1C3B10",
"{+	c #2D4A0B",
"]+	c #73850E",
"^+	c #6C8012",
"/+	c #6A7E0E",
"(+	c #728613",
"_+	c #303B06",
":+	c #18340E",
"<+	c #1D3D0F",
"[+	c #19390B",
"}+	c #1D3A10",
"|+	c #1A350F",
"1+	c #102507",
"2+	c #232E20",
"3+	c #2E4D22",
"4+	c #2F4624",
"5+	c #1C3A0F",
"6+	c #19390E",
"7+	c #274617",
"8+	c #556909",
"9+	c #6E810E",
"0+	c #697C0C",
"a+	c #6D8110",
"b+	c #5D6D0B",
"c+	c #25310C",
"d+	c #1D3D11",
"e+	c #1A380C",
"f+	c #16310A",
"g+	c #16300A",
"h+	c #2C3B25",
"i+	c #254318",
"j+	c #243B1A",
"k+	c #234017",
"l+	c #375224",
"m+	c #82944D",
"n+	c #2D3D04",
"o+	c #5D6E12",
"p+	c #546410",
"q+	c #5B6D0C",
"r+	c #36410A",
"s+	c #69763C",
"t+	c #405913",
"u+	c #1A3A0D",
"v+	c #16340A",
"w+	c #050D02",
"x+	c #2D3A28",
"y+	c #264419",
"z+	c #1A340F",
"A+	c #1E3B11",
"B+	c #284519",
"C+	c #7D9043",
"D+	c #384027",
"E+	c #4B5736",
"F+	c #323D0D",
"G+	c #313914",
"H+	c #545B49",
"I+	c #70812B",
"J+	c #687C0A",
"K+	c #2E470D",
"L+	c #1C3A10",
"M+	c #213C15",
"N+	c #070F02",
"O+	c #273422",
"P+	c #254418",
"Q+	c #18320D",
"R+	c #1B390D",
"S+	c #1A3A0E",
"T+	c #4B642E",
"U+	c #7C8F25",
"V+	c #697D0D",
"W+	c #4F5D1E",
"X+	c #728048",
"Y+	c #57662E",
"Z+	c #6C793C",
"`+	c #647535",
" @	c #6F8120",
".@	c #4D600B",
"+@	c #1C390D",
"@@	c #18380A",
"#@	c #223E16",
"$@	c #061002",
"%@	c #212E1C",
"&@	c #244317",
"*@	c #152F0A",
"=@	c #214014",
"-@	c #73883A",
";@	c #6B7F0B",
">@	c #63760C",
",@	c #617019",
"'@	c #687A18",
")@	c #76891A",
"!@	c #6C8011",
"~@	c #63741A",
"{@	c #627315",
"]@	c #6A7E0B",
"^@	c #5D700A",
"/@	c #21390C",
"(@	c #27421B",
"_@	c #19370D",
":@	c #1B2A14",
"<@	c #213F14",
"[@	c #17360D",
"}@	c #83952E",
"|@	c #6B7F0D",
"1@	c #53620C",
"2@	c #677626",
"3@	c #636B40",
"4@	c #596716",
"5@	c #6A7248",
"6@	c #54630F",
"7@	c #687C0E",
"8@	c #687A0B",
"9@	c #25370B",
"0@	c #334C1C",
"a@	c #244114",
"b@	c #29411E",
"c@	c #1B380F",
"d@	c #060F02",
"e@	c #15270E",
"f@	c #19340E",
"g@	c #1D3B0F",
"h@	c #1B3B0F",
"i@	c #819325",
"j@	c #566411",
"k@	c #595F3F",
"l@	c #636B3F",
"m@	c #708515",
"n@	c #5C5E53",
"o@	c #525C23",
"p@	c #6A7E10",
"q@	c #233209",
"r@	c #2C4710",
"s@	c #2A400F",
"t@	c #1D3D12",
"u@	c #2C4223",
"v@	c #060D02",
"w@	c #0C1805",
"x@	c #1A3A0B",
"y@	c #213D14",
"z@	c #1F3E14",
"A@	c #738614",
"B@	c #6B800C",
"C@	c #697D0E",
"D@	c #5E700E",
"E@	c #677B0E",
"F@	c #6A7D10",
"G@	c #6B7F0F",
"H@	c #667715",
"I@	c #697B16",
"J@	c #697B11",
"K@	c #65780D",
"L@	c #1F2E09",
"M@	c #2E4916",
"N@	c #28390C",
"O@	c #2F4B23",
"P@	c #213916",
"Q@	c #182F0D",
"R@	c #1A360E",
"S@	c #132F07",
"T@	c #1B3C0D",
"U@	c #1C3B13",
"V@	c #5A6F0C",
"W@	c #6D810F",
"X@	c #6D8111",
"Y@	c #6C7F0F",
"Z@	c #6A7D11",
"`@	c #697C0E",
" #	c #6A7F0E",
".#	c #6A7F0D",
"+#	c #586908",
"@#	c #152605",
"##	c #445B2A",
"$#	c #243412",
"%#	c #18380B",
"&#	c #364E2C",
"*#	c #1E3812",
"=#	c #0E2005",
"-#	c #122909",
";#	c #163108",
">#	c #1D3C12",
",#	c #364E0C",
"'#	c #6D800D",
")#	c #6F8214",
"!#	c #697D0F",
"~#	c #6A7F0B",
"{#	c #6D810E",
"]#	c #697D0C",
"^#	c #6F8411",
"/#	c #43500B",
"(#	c #64743A",
"_#	c #677A41",
":#	c #36411F",
"<#	c #162F0B",
"[#	c #27461B",
"}#	c #293E20",
"|#	c #1B380E",
"1#	c #0A1703",
"2#	c #0C1E05",
"3#	c #17350B",
"4#	c #1A350E",
"5#	c #1E3B12",
"6#	c #1E3B0D",
"7#	c #526508",
"8#	c #596A0F",
"9#	c #475509",
"0#	c #62730D",
"a#	c #6D8112",
"b#	c #677A0E",
"c#	c #515F0D",
"d#	c #526309",
"e#	c #61720E",
"f#	c #323B15",
"g#	c #485517",
"h#	c #101900",
"i#	c #11280A",
"j#	c #25401B",
"k#	c #15300B",
"l#	c #132D08",
"m#	c #163309",
"n#	c #1F3C11",
"o#	c #1F3408",
"p#	c #394322",
"q#	c #6A783A",
"r#	c #3C4C0E",
"s#	c #435301",
"t#	c #414C1B",
"u#	c #626D3D",
"v#	c #3E4E18",
"w#	c #1B2600",
"x#	c #0F2308",
"y#	c #0E2608",
"z#	c #17350D",
"A#	c #1F4012",
"B#	c #304826",
"C#	c #0E1C09",
"D#	c #091404",
"E#	c #17350A",
"F#	c #153209",
"G#	c #1D3B11",
"H#	c #18370E",
"I#	c #63752D",
"J#	c #60730A",
"K#	c #4E5E0C",
"L#	c #1F2D09",
"M#	c #5E6B2F",
"N#	c #6C7E18",
"O#	c #485606",
"P#	c #152C0A",
"Q#	c #1F3E13",
"R#	c #394F30",
"S#	c #233F17",
"T#	c #102407",
"U#	c #091904",
"V#	c #1C3910",
"W#	c #18340B",
"X#	c #1B360F",
"Y#	c #2F411C",
"Z#	c #383E33",
"`#	c #31382B",
" $	c #132604",
".$	c #364328",
"+$	c #3A3F33",
"@$	c #2B3226",
"#$	c #18300C",
"$$	c #1E3D13",
"%$	c #3D5334",
"&$	c #27401C",
"*$	c #142C09",
"=$	c #040D01",
"-$	c #0F2207",
";$	c #18360C",
">$	c #29441F",
",$	c #314529",
"'$	c #2C4123",
")$	c #1B3810",
"!$	c #2C4522",
"~$	c #374C30",
"{$	c #22381A",
"]$	c #1F3C12",
"^$	c #29451D",
"/$	c #3C5333",
"($	c #263F1B",
"_$	c #112D05",
":$	c #091403",
"<$	c #0B1E04",
"[$	c #18350B",
"}$	c #1A370D",
"|$	c #1E3813",
"1$	c #203B14",
"2$	c #234316",
"3$	c #163608",
"4$	c #304D23",
"5$	c #354D2B",
"6$	c #244118",
"7$	c #0A1604",
"8$	c #071302",
"9$	c #17310B",
"0$	c #1D3910",
"a$	c #223A19",
"b$	c #2C4622",
"c$	c #324D25",
"d$	c #1B3B0D",
"e$	c #203F12",
"f$	c #3F5A33",
"g$	c #43583B",
"h$	c #304426",
"i$	c #2A4420",
"j$	c #18370C",
"k$	c #112608",
"l$	c #050C01",
"m$	c #14280D",
"n$	c #18330C",
"o$	c #223F16",
"p$	c #1F3A12",
"q$	c #223817",
"r$	c #34492B",
"s$	c #33492B",
"t$	c #374E2E",
"u$	c #3D5034",
"v$	c #3A4E31",
"w$	c #213817",
"x$	c #26401B",
"y$	c #213D15",
"z$	c #142F09",
"A$	c #0B1A05",
"B$	c #040D00",
"C$	c #0E1D07",
"D$	c #112708",
"E$	c #152E0B",
"F$	c #0E2105",
"G$	c #0B1905",
"H$	c #020800",
"I$	c #050A01",
"J$	c #060E01",
"K$	c #050E02",
"                        . + @ # $ % &                           ",
"                  * = - ; > , ' ) ! ~ { ] ^ /                   ",
"              ( _ : < [ } | 1 2 1 3 4 5 6 7 8 9                 ",
"            0 a b c d e f g h i j k l m n o p q r s             ",
"          t u v w x y z A B C D E F F G H I J K L M N           ",
"        O P Q R S T L C U V W X Y Z `  .T m C ..+.@.#.$.        ",
"      %.! &.*.=.-.;.>.,.'.).!.~.{.].^./.(._.H :.<.[.}...|.      ",
"    1.2.3.4.g 5.6. .6.;.7.8.9.0.a.b.c.1 L m d.k A e.f. .[.      ",
"    - g.h.;.G G i.M L  .j.k.l.m.n.o.p.@.q.r.C k  . .s.t.G u.    ",
"  v.w.x.y.z.A.B.C.D.s.C E.F.G.H.I.J.K.L.M.N.O.G m G P.,.Q.R.    ",
"  S.T.U.s.G  .L f V.l W.X.Y.Z.`. +.+++@+#+l $+I G l %+L &+*+=+  ",
"  -+;+>+,+'+d.T  .)+!+~+{+]+^+/+`.(+_+:+<+H H l m [+G A.}+|+1+  ",
"2+3+4+F q.$+ .5.5+#+i 6+7+8+9+0+a+b+c+Q. .T d+H  .M I e+k f+g+  ",
"h+i+j+z m $+k+ .M j 5+l+m+n+o+p+q+r+s+t+M L M u+#.5.5.l T n v+w+",
"x+y+z+m :.5.A :.M A+B+C+0+D+E+F+G+H+I+J+K+L+l L+5+m G #.H M+E N+",
"O+P+Q+%+g.C =.R+5+S+T+U+V+W+X+Y+Z+`+ @a..@+@G G %+m l z.@@#@@.$@",
"%@&@*@=@L d+k u+H N.-@;@>@,@'@)@!@~@{@]@^@/@R+#.l C U 5+5.(@_@$@",
":@=@z+:.G M G q <@[@}@|@1@2@3@]@4@5@6@7@8@9@<+0@a@m L e.i b@c@d@",
"e@&@f@q l g@h@u+U N.i@0+j@k@l@m@o+n@o@V+p@q@<@r@s@t@m l C u@Q.v@",
"w@x@t.V.g@y@z j  .z@A@B@C@D@E@F@G@H@I@J@K@L@m M@N@S+T g@O@P@Q@  ",
"  R@,.S@T@:.:.V.m U@V@W@G@X@Y@I.Z@`@ #.#+#@#S ##$#H @@%#&#*#=#  ",
"  -#5.;#G m G m m >#,#'#/+)#!#|@~#{#]#^#/#(#_#:#<#i T [#}#|#1#  ",
"  2#,.3#4#G 5# .f q.6#7#8#9#0#a#b#c#d#e#f#g#h#i#,+ .H h.j#k#    ",
"    l#=.m#n##.5.5.,+C o#p#q#r#s#t#u#v#w#x#y#z#A#G C T.B#m C#    ",
"    D#E#_@F#U H l l G#H#I#J#K#L#M#N#O#P#Q#m M I G >.R#S#T#      ",
"      U#V#W#X#H 6.:.r.k Y#Z#`# $.$+$@$#$$$:.j g@<@%$&$*$=$      ",
"        -$;$}.J (.L+ .C >$,$'$)$!$~${$]$#.,.5.^$/$($_$:$        ",
"          <$[$}$|$1$2$[+~+@@C <@R+@@y y 3$4$5$w 6$l#7$          ",
"            8$9$5+0$a$b$c$,+z q.B d$e$f$g$h$i$j$k$=$            ",
"              l$m$n$o$p$q$r$s$t$%$u$v$w$x$y$z$A$                ",
"                  B$C$D$g+c@g@L A.:._@E$F$G$H$                  ",
"                        I$=$J$J$N+v@K$                          "};
